<svg xmlns="http://www.w3.org/2000/svg" viewBox="0 0 128 128"><path d="M50.4 78.5a75.1 75.1 0 0 0-28.5 6.9l24.2-65.7C46.5 17.7 48.2 16 50.3 16h27.4c2 0 3.8 1.7 4.2 3.7l24.2 65.7c-9-4.5-18.6-6.9-28.5-6.9Z" fill="#0F172A"/><path d="m105 97.4-12.2 14.7c-2.4 2.9-6.5 4-10.1 2.5l-7.5-2.9c-.4-.2-.8-.2-1.3 0l-7.5 2.9c-3.6 1.4-7.7.4-10.1-2.5L43.9 97.4c-1.6-1.9-1.5-4.7.3-6.5l1.5-1.5c5.4-5.4 13-7.7 20.5-6.4l11.9 2.1c.4.1.8.1 1.2 0l11.9-2.1c7.5-1.3 15.1 1 20.5 6.4l1.5 1.5c1.6 1.8 1.7 4.6.3 6.5Z" fill="#16A34A"/></svg>
